PathFileType	4	(X/Y/Z)	C:/Users/beibeiliu/ov580/test_trc/User3\sequence.10_training_dense_left.trc
DataRate	CameraRate	NumFrames	NumMarkers	Units	OrigDataRate	OrigDataStartFrame	OrigNumFrames
120	120	21	19	mm	120	66	263
Frame#	Time	ThumbCMC			ThumbMCP			ThumbIP			ThumbTip			IndexMCP			IndexPIP			IndexTip			MiddleMCP			MiddlePIP			MiddleTip			RingMCP			RingPIP			RingTip			PinkyMCP			PinkyPIP			PinkyTip			BackHand1			BackHand2			BackHand3	
		X0	Y0	Z0	X1	Y1	Z1	X2	Y2	Z2	X3	Y3	Z3	X4	Y4	Z4	X5	Y5	Z5	X6	Y6	Z6	X7	Y7	Z7	X8	Y8	Z8	X9	Y9	Z9	X10	Y10	Z10	X11	Y11	Z11	X12	Y12	Z12	X13	Y13	Z13	X14	Y14	Z14	X15	Y15	Z15	X16	Y16	Z16	X17	Y17	Z17	X18	Y18	Z18	
65	0.541667	-223.205	23.128	16.2169	-220.704	39.4633	-7.87873	-220.389	58.3245	-22.5987	-223.008	75.8244	-35.1264	-197.225	16.2651	-52.5838	-166.068	16.3895	-36.349	-185.835	13.2117	-8.26379	-188.451	-1.79029	-54.7932	-162.694	-2.39695	-33.8748	-185.706	-6.05028	-5.42368	-185.246	-19.5488	-44.5729	-163.812	-15.4358	-22.646	-184.437	-14.1185	2.60835	-184.175	-35.4983	-36.0212	-165.891	-31.2708	-16.4934	-184.036	-21.7992	6.51624	-235.182	-31.0478	-12.9873	-243.593	-36.4713	12.7977	-242.949	-1.28435	0.467118	
66	0.55	-218.22	27.8723	21.8783	-213.788	45.088	4.12018	-213.068	66.7881	-13.888	-212.999	86.2351	-19.7926	-194.713	25.2041	-47.408	-162.775	21.8565	-33.855	-181.063	16.6461	-4.94792	-187.225	3.24395	-53.1392	-160.461	5.32423	-36.2916	-186.15	-2.31672	-3.01903	-185.851	-15.2613	-44.3834	-162.832	-17.1306	-23.9071	-180.096	-12.4627	2.77391	-190.246	-33.9215	-38.5212	-168.105	-27.3317	-21.298	-182.886	-27.5295	5.54532	-237.767	-22.4226	-13.2072	-242.813	-29.9002	13.3614	-241.468	6.66365	4.53591	
67	0.558333	-215.423	30.6681	26.6851	-207.465	47.0805	10.5544	-206.491	73.3491	-3.94301	-204.075	90.8811	-13.197	-190.786	28.3127	-43.0164	-160.447	25.1506	-30.1194	-176.071	17.8589	-0.765318	-186.697	8.60877	-48.6937	-159.255	5.23679	-30.8638	-182.176	-2.03292	-1.40367	-185.689	-9.87275	-43.3509	-162.56	-12.5775	-21.0574	-181.052	-10.4455	4.57258	-185.544	-27.8327	-39.1689	-166.737	-25.5493	-18.8604	-185.999	-22.5049	4.95269	-237.475	-17.8842	-13.5937	-241.479	-24.5402	13.2908	-237.931	10.9474	7.1684	
68	0.566667	-210.523	30.7541	32.5512	-201.078	49.3594	17.257	-197.629	71.0405	5.00311	-193.386	93.3182	-0.337981	-184.458	33.7042	-38.3885	-156.488	23.5962	-22.355	-174.751	13.5875	1.13962	-184.424	13.2093	-46.7351	-157.952	6.08669	-30.6375	-179.974	1.29568	1.64192	-186.516	-4.23149	-41.4172	-161.516	-11.0252	-21.8892	-178.079	-14.4484	5.61205	-186.989	-26.1994	-39.6255	-166.385	-22.4028	-19.6237	-182.756	-19.8099	4.47011	-234.681	-11.6367	-14.6459	-243.585	-23.9727	14.1877	-234.187	12.7567	9.31108	
69	0.575	-207.107	26.7829	35.3316	-195.907	48.8088	18.595	-190.53	74.3036	10.8642	-183.765	92.9438	8.53106	-180.839	38.4376	-33.8568	-155.301	23.5257	-19.5597	-173.569	13.9828	3.67851	-179.913	14.7066	-43.8582	-156.424	5.45688	-27.8225	-181.944	0.254806	4.56295	-184.612	-5.72383	-40.1084	-161.251	-13.3422	-22.924	-177.341	-12.0316	7.14556	-186.538	-22.7672	-39.1793	-167.003	-21.6847	-18.7543	-181.789	-23.6219	5.98481	-236.455	-10.7128	-10.467	-242.991	-23.1881	19.002	-232.506	14.9329	13.4801	
70	0.583333	-204.466	30.2529	38.574	-192.216	46.4188	22.0869	-184.091	74.9571	15.5655	-178.006	94.5724	12.8378	-178.677	40.4646	-31.8293	-151.627	29.4969	-20.3096	-173.181	13.6968	6.39973	-180.393	20.9073	-39.8072	-155.206	7.3157	-25.7637	-178.145	3.1908	6.3924	-184.097	-2.88409	-39.7	-160.214	-10.1559	-17.0955	-181.414	-12.0833	10.0508	-184.307	-20.3499	-38.2066	-166.809	-25.7954	-18.5915	-185.914	-20.9624	7.77125	-234.167	-7.86038	-12.52	-240.193	-16.4911	19.8004	-230.452	16.947	16.1199	
71	0.591667	-202.949	31.0506	36.5762	-189.043	47.3824	28.8606	-180.211	72.8333	18.0457	-172.011	94.3622	18.5159	-177.347	36.4771	-31.5391	-151.346	24.561	-16.6396	-172.569	13.4478	7.29446	-178.955	21.5302	-39.9766	-152.899	10.1725	-22.6103	-180.556	1.33309	7.83561	-179.223	0.778668	-37.5891	-159.223	-10.0061	-21.2483	-180.828	-13.2097	10.1388	-187.889	-19.0175	-37.1959	-166.817	-22.5125	-16.5247	-185.742	-21.7888	9.43554	-231.705	-4.98374	-13.594	-240.614	-16.8242	16.4927	-228.458	21.2981	15.9771	
72	0.6	-201.106	28.568	41.9609	-186.144	46.0511	29.0718	-176.559	73.4143	24.0991	-167.833	91.523	19.0548	-174.693	37.438	-30.3765	-149.12	22.7793	-17.8082	-167.681	13.6279	8.36959	-174.658	18.8981	-40.2394	-152.88	4.08061	-21.4278	-177.934	-2.20458	5.75172	-178.802	-0.64625	-38.2317	-157.561	-11.1677	-17.5862	-178.574	-12.0787	10.6002	-186.354	-15.1309	-35.8713	-166.012	-24.1065	-17.2439	-185.732	-27.242	8.56025	-232.864	-6.06682	-12.1142	-241.158	-16.4299	19.0904	-228.076	17.7544	16.8746	
73	0.608333	-201.046	25.617	41.7985	-185.467	44.7735	25.88	-173.013	72.7933	20.9824	-163.592	89.0646	24.133	-174.494	38.5421	-27.5062	-146.709	24.1727	-13.883	-169.968	10.4825	8.5956	-174.814	21.1036	-37.3599	-150.998	5.58865	-23.6183	-179.495	-3.8728	6.5121	-179.756	1.34347	-37.5429	-157.438	-11.4208	-16.2034	-179.349	-14.865	9.55853	-181.401	-16.3647	-36.1131	-165.827	-27.3206	-15.7503	-187.38	-23.4809	7.16613	-229.396	-2.30453	-12.4385	-239.536	-19.2131	12.7111	-226.435	17.4456	15.0124	
74	0.616667	-200.606	23.0778	39.5409	-183.827	45.1205	30.2402	-171.019	71.2235	21.9214	-162.107	87.6013	26.0132	-173.221	36.3864	-27.3619	-147.178	20.8507	-15.7278	-167.558	12.0557	10.4261	-171.876	19.917	-38.056	-150.758	3.87688	-22.0602	-174.96	-2.98743	8.01199	-180.087	1.56893	-36.7421	-156.894	-15.9134	-16.9359	-175.047	-18.0081	6.57738	-182.771	-19.7431	-37.1693	-165.749	-25.5677	-18.6447	-185.15	-25.7778	5.88431	-229.243	-8.60576	-10.8853	-240.161	-16.4744	17.0277	-225.878	17.2294	17.1985	
75	0.625	-198.955	24.8533	40.7891	-181.684	42.1559	28.7301	-170.514	67.3085	25.749	-158.917	84.5619	25.4806	-173.399	33.7449	-29.3465	-147.719	16.806	-14.7323	-167.025	11.1781	10.7436	-173.344	19.0056	-37.7932	-150.264	1.30262	-22.7229	-178.638	-6.0086	7.08208	-178.296	-3.75753	-37.8879	-156.365	-14.3606	-18.3008	-180.382	-19.5147	9.20172	-185.671	-19.2191	-35.8064	-165.854	-30.0765	-18.7462	-184.514	-27.2594	6.80799	-227.622	-2.87768	-13.1196	-239.892	-17.97	18.5205	-227.704	13.8892	18.3831	
76	0.633333	-197.612	24.8939	38.7962	-181.139	40.7349	30.1869	-168.387	64.1511	21.3527	-157.695	83.5752	25.2228	-172.747	37.0026	-25.9417	-145.018	19.2524	-14.0752	-166.109	7.12985	7.84003	-171.427	16.8955	-38.6994	-150.25	-1.80366	-23.2273	-174.852	-7.45215	6.78752	-178.953	-1.35493	-37.2149	-158.291	-20.5763	-18.5672	-177.896	-23.2897	6.12812	-183.816	-22.0886	-38.1168	-166.318	-31.4289	-19.5127	-187.288	-30.9879	8.17949	-228.993	-6.66394	-10.0489	-241.006	-20.4115	12.2667	-226.771	15.0658	14.081	
77	0.641667	-198.171	18.466	38.6572	-180.287	37.1345	26.0949	-166.074	62.6721	23.4471	-155.859	78.9384	23.3992	-172.815	31.6894	-28.9503	-145.241	14.5298	-16.4029	-167.6	4.00876	7.99612	-172.929	16.0388	-38.4805	-150.164	-1.28118	-24.292	-176.642	-11.125	3.49712	-178.397	-5.95934	-38.0702	-160.513	-23.5548	-18.8546	-181.004	-24.3232	7.57623	-183.9	-21.5717	-37.9035	-167.615	-32.4137	-17.5531	-185.443	-31.4571	3.87295	-231.886	-6.69369	-13.221	-240.782	-21.1374	14.8886	-226.635	13.6007	14.1815	
78	0.65	-196.192	20.366	40.6046	-178.908	37.3636	24.3853	-164.785	59.371	20.8901	-153.339	77.024	18.4801	-170.558	29.3443	-29.9332	-144.984	14.121	-19.228	-164.183	2.93644	5.70287	-177.409	10.8006	-41.0318	-151.899	-6.79631	-22.5342	-177.2	-10.3794	4.86901	-182.827	-6.49437	-39.5746	-161.342	-26.0579	-22.2569	-177.958	-27.0564	4.42861	-190.314	-23.671	-38.3038	-169.592	-34.1197	-18.0105	-187.53	-34.2919	4.2114	-230.208	-6.68477	-9.40595	-240.032	-19.5297	14.4813	-223.626	14.5086	17.1649	
79	0.658333	-195.112	18.2756	37.1837	-177.356	35.1352	25.4201	-162.611	60.033	22.7698	-151.28	75.8897	21.287	-173.505	27.1804	-31.1335	-147.82	7.55373	-19.245	-164.126	1.22663	5.59378	-176.414	8.99032	-41.9016	-152.259	-5.51708	-27.0308	-177.921	-13.7435	1.36405	-179.139	-8.03868	-40.85	-163.102	-26.6959	-23.5525	-178.608	-26.387	4.57618	-189.985	-24.9406	-39.7581	-170.821	-37.2346	-23.0494	-187.698	-36.1279	1.84048	-231.698	-9.27835	-10.4022	-242.047	-17.3712	14.52	-225.459	14.4354	15.8727	
80	0.666667	-195.388	16.3475	35.3773	-176.928	33.352	28.0418	-163.064	56.913	18.9934	-150.187	72.2578	19.4892	-170.523	25.9344	-33.8125	-148.418	6.07322	-20.2572	-167.686	2.58278	6.19133	-176.853	8.09627	-42.6161	-153.577	-9.97492	-26.9666	-177.871	-13.0094	1.73155	-183.079	-7.86671	-40.0391	-161.961	-23.3051	-25.0059	-180.848	-24.0198	5.42602	-188.17	-29.2806	-41.7342	-172.026	-34.4711	-23.1476	-188.715	-37.8998	2.21427	-233.298	-8.58548	-16.4508	-240.351	-18.1475	16.1263	-225.235	13.0114	16.4611	
81	0.675	-194.138	19.0914	37.6738	-176.128	34.0674	24.4872	-162.589	57.582	18.8911	-149.83	71.811	18.8172	-173.11	26.093	-32.615	-149.061	6.75206	-24.0836	-169.962	-1.23053	2.74329	-175.7	10.0384	-41.8194	-152.043	-6.77037	-26.2116	-179.811	-16.2377	0.645737	-184.042	-11.1912	-41.1225	-163.216	-27.2944	-26.1929	-181.931	-24.5568	6.17335	-187.485	-26.0823	-39.2105	-171.273	-35.3377	-21.6535	-190.877	-39.6746	3.56859	-233.367	-11.3338	-14.2773	-241.355	-23.1528	13.0893	-224.6	11.5967	14.6513	
82	0.683333	-195.241	18.395	34.9521	-177.927	29.8823	22.7297	-161.88	56.2224	13.4368	-151.17	72.4242	11.1613	-173.305	26.4571	-34.8359	-148.722	8.2729	-23.9384	-168.838	-2.48891	0.884295	-180.6	8.31104	-43.425	-154.314	-9.58056	-26.0975	-181.304	-15.2134	0.860928	-183.767	-12.1048	-42.4332	-164.595	-28.5922	-25.9393	-180.026	-24.4769	4.75256	-193.473	-28.7713	-40.1771	-171.969	-38.6109	-22.7761	-188.773	-39.6791	1.85824	-232.557	-8.05469	-15.3614	-242.036	-20.3756	14.9165	-227.797	10.0477	15.2683	
83	0.691667	-196.175	14.8876	34.4504	-177.654	32.5968	20.3061	-164.789	53.7771	8.22014	-152.406	72.4888	6.00609	-176.439	24.749	-36.2984	-150.869	5.96356	-26.0964	-168.517	-1.17507	1.10286	-179.108	3.24685	-47.5723	-157.039	-12.7197	-30.3266	-180.14	-16.397	-1.54016	-186.505	-13.6504	-43.3116	-164.86	-28.9631	-26.6018	-183.382	-28.1319	4.05594	-193.292	-33.1727	-41.0577	-173.868	-42.289	-23.2312	-189.352	-37.0433	3.70226	-233.851	-13.8336	-16.2663	-242.339	-25.7099	14.0616	-227.456	10.362	12.8258	
84	0.7	-196.709	18.4658	28.3765	-179.527	33.4462	13.3929	-166.828	57.018	4.5572	-155.547	70.6742	-0.794763	-178.858	22.0099	-40.4965	-153.118	2.10843	-27.056	-168.23	0.000843258	-0.545944	-179.026	2.93792	-47.5436	-157.056	-13.8531	-33.3755	-181.191	-14.6695	-0.0924022	-186.227	-18.5503	-45.1323	-165.177	-29.4149	-22.6809	-184.374	-25.8396	4.32526	-191.15	-32.6013	-40.9733	-174.483	-43.4752	-21.5874	-188.624	-37.5197	4.09366	-236.895	-16.005	-18.0013	-242.142	-25.629	16.4075	-228.04	10.4378	11.1736	
85	0.708333	-196.868	17.0947	27.1652	-182.616	29.7554	6.31218	-170.564	50.6926	-5.68876	-160.223	69.8321	-10.1437	-179.668	15.9339	-45.0587	-154.913	1.70553	-34.8449	-171.072	-2.9188	-4.98539	-183.428	-0.581623	-50.3649	-157.984	-14.8332	-31.3892	-181.027	-15.5389	-2.58978	-187.651	-24.1524	-46.544	-165.564	-30.4331	-24.4918	-187.534	-28.6977	3.41258	-190.545	-40.4035	-42.4426	-175.245	-43.969	-21.7041	-193.971	-40.5849	6.46515	-237.037	-20.4409	-16.103	-242.415	-24.5176	12.943	-228.683	8.10771	11.8452	
